<svg xmlns="http://www.w3.org/2000/svg" viewBox="0 0 1200 900" width="1200" height="900" role="img" aria-label="factory-qc.svg">
<defs>
  <pattern id="dots" width="32" height="32" patternUnits="userSpaceOnUse"><circle cx="4" cy="4" r="2" fill="#000" opacity=".13"/></pattern>
  <filter id="shadow" x="-20%" y="-20%" width="140%" height="140%"><feDropShadow dx="18" dy="18" stdDeviation="0" flood-color="#000" flood-opacity="1"/></filter>
  <linearGradient id="warm" x1="0" x2="1"><stop offset="0" stop-color="#ff7e47"/><stop offset="1" stop-color="#ffb199"/></linearGradient>
</defs>

<rect width="1200" height="900" fill="#111"/>
<g opacity=".25" stroke="#fff" stroke-width="3"><path d="M0 150h1200M0 300h1200M0 450h1200M0 600h1200M0 750h1200"/><path d="M150 0v900M300 0v900M450 0v900M600 0v900M750 0v900M900 0v900M1050 0v900"/></g>
<g transform="translate(105 120)" filter="url(#shadow)">
 <rect x="0" y="160" width="800" height="460" fill="#fff" stroke="#fff" stroke-width="10"/>
 <path d="M0 160 170 45h800v575H800V160Z" fill="#ff7e47" stroke="#fff" stroke-width="10"/>
 <rect x="120" y="255" width="150" height="160" fill="#111" stroke="#fff" stroke-width="8"/>
 <rect x="330" y="255" width="150" height="160" fill="#111" stroke="#fff" stroke-width="8"/>
 <rect x="540" y="255" width="150" height="160" fill="#111" stroke="#fff" stroke-width="8"/>
 <path d="M90 540h640" stroke="#111" stroke-width="20"/>
 <circle cx="185" cy="540" r="45" fill="#ff7e47" stroke="#111" stroke-width="10"/>
 <circle cx="610" cy="540" r="45" fill="#ff7e47" stroke="#111" stroke-width="10"/>
</g>
<g transform="translate(790 515) rotate(8)">
 <rect x="0" y="0" width="300" height="210" fill="#fff" stroke="#000" stroke-width="10"/>
 <text x="34" y="68" font-family="Arial Black" font-size="44" fill="#000">QC PASS</text>
 <text x="36" y="118" font-family="Montserrat" font-size="22" font-weight="900" fill="#000">FOOD GRADE</text>
 <text x="36" y="155" font-family="Montserrat" font-size="22" font-weight="900" fill="#000">EXPORT READY</text>
</g>
<text x="70" y="88" font-family="Arial Black" font-size="72" fill="#fff">FACTORY & QUALITY CONTROL</text>

</svg>