<?xml version="1.0" encoding="utf-8"?>
<!-- Generator: Adobe Illustrator 16.0.0, SVG Export Plug-In . SVG Version: 6.00 Build 0)  -->
<!DOCTYPE svg PUBLIC "-//W3C//DTD SVG 1.1//EN" "http://www.w3.org/Graphics/SVG/1.1/DTD/svg11.dtd">
<svg version="1.1" id="Layer_1" xmlns="http://www.w3.org/2000/svg" xmlns:xlink="http://www.w3.org/1999/xlink" x="0px" y="0px"
	 width="576px" height="576px" viewBox="0 0 576 576" enable-background="new 0 0 576 576" xml:space="preserve">
<rect fill-rule="evenodd" clip-rule="evenodd" fill="#5E2A70" width="576" height="576"/>
<g>
	<path fill="#426EAB" d="M205.578,322.605c8.969,0.488,17.934,1.369,26.926,1.264c-2.724-2.5-3.462-6.412-3.261-9.957
		c0.075-1.68,1.02-3.182,2.202-4.324c2.145-2.18,5.026-3.361,7.742-4.65c-6.234-3.15-12.569-6.117-18.961-8.945
		c-5.275-2.154-10.71-4.346-16.472-4.623c-3.697-0.174-6.745,2.463-8.872,5.217c-3.858,4.947-5.433,11.232-6.335,17.326
		c-0.482,2.385,1,4.705,3.089,5.752c0.842,0.453,1.712,0.822,2.602,1.129l0.521-0.445c0.838-0.719,1.907-2.783,2.597-3.762
		l4.88-6.92l1.314,8.365c0.232,1.482,0.382,2.953,0.416,4.422L205.578,322.605z M236.253,323.908
		c2.966-0.027,5.936,0.006,8.906-0.018c-0.045-0.588,0.034-1.238-0.316-1.752c-0.486-0.807-1.612-0.916-2.023-1.791
		c1.489-0.914,3.418-1.939,5.123-0.936c1.56,0.883,1.395,2.895,1.366,4.428c1.004,0.004,2.011,0.004,3.018-0.01
		c-1.261-1.865-2.738-3.828-2.76-6.18c0.096-2.115,2.256-3.291,4.122-3.574c1.119-0.156,2.627-0.041,3.135,1.16
		c0.522,1.422-0.291,2.82-0.978,4.016c-0.306,0.689,0.556,1.01,1.014,1.264c3.364,1.355,7.056,0.836,10.59,1.164v-1.881
		c-1.096-0.709-2.259-1.326-3.37-2c-4.93-2.742-9.828-5.559-14.92-7.994c-0.27,0.852-0.392,1.902-1.221,2.416
		c-0.582,0.33-1.249,0.109-1.865,0.068c-0.089-0.971,0.172-2.365-1.082-2.652c-4.149-1.463-9.805-0.438-11.995,3.73
		c-0.616,1.021,0.739,0.684,1.276,0.438c2.134-0.813,4.488-1.754,6.779-0.963c1.496,0.5,3.286,1.557,3.261,3.354
		c0.101,0.975-0.489,1.777-1.018,2.514c-1.396-0.271-2.257-1.67-3.706-1.781c-1.649-0.184-3.809,0.111-4.622,1.773
		C234.357,320.504,235.134,322.475,236.253,323.908z"/>
	<path fill="#FCD612" d="M324.188,323.873c8.868,0.105,17.71-0.76,26.559-1.238c4.485-0.41,9.128-0.645,13.317-2.451
		c2.056-0.885,4.175-2.668,4.118-5.104c-0.025-2.809-0.843-5.533-1.489-8.246c-1.521-5.477-4.237-11.051-9.146-14.225
		c-2.702-1.771-6.078-1.303-9.06-0.672c-7.629,1.697-14.666,5.227-21.717,8.477c-3.09,1.521-6.246,2.91-9.288,4.533
		c3.21,1.467,6.668,2.943,8.827,5.869c1.7,2.297,1.3,5.354,0.714,7.965C326.624,320.732,325.616,322.498,324.188,323.873
		 M304.384,323.824c1.004,0.023,2.011,0.023,3.017,0.02c-0.092-1.477-0.22-3.346,1.166-4.305c1.642-1.123,3.764-0.258,5.196,0.805
		c-0.067,0.93-1.31,0.885-1.764,1.557c-0.359,0.559-0.799,1.34-0.344,1.951c2.918,0.07,5.847,0.098,8.763-0.012
		c1.281-1.324,1.818-3.361,1.336-5.141c-0.914-1.746-3.22-2.033-4.973-1.717c-1.306,0.131-2.06,1.688-3.381,1.578
		c-1.197-1.025-1.424-3.012-0.32-4.193c1.451-1.42,3.615-2.09,5.619-1.723c1.741,0.309,3.347,1.1,5.044,1.574
		c-0.005-0.549-0.026-1.143-0.437-1.566c-1.98-2.877-5.73-3.9-9.062-3.602c-1.12,0.168-2.329,0.295-3.258,0.988
		c-0.455,0.631-0.224,1.512-0.348,2.238c-0.619,0.045-1.276,0.246-1.861-0.037c-0.836-0.518-0.962-1.566-1.264-2.414
		c-3.389,1.529-6.605,3.406-9.881,5.16c-2.843,1.586-5.712,3.133-8.464,4.869c-0.885,0.604-1.866,1.172-2.449,2.096
		c-0.111,0.49,0.172,0.953,0.291,1.41c-0.003-0.326-0.011-0.98-0.014-1.309c1.265-0.586,2.683-0.32,4.029-0.426
		c2.764-0.168,5.603-0.025,8.274-0.895c0.62-0.234,1.335-0.5,1.652-1.139c-0.383-1.141-1.354-2.115-1.216-3.41
		c-0.193-1.213,0.951-2.148,2.09-2.133c2.241-0.148,5.149,1.096,5.313,3.645C307.063,320.027,305.611,321.955,304.384,323.824z"/>
	<path fill="#F07D0A" d="M263.616,298.23c0.104,0.824,1.06,1.1,1.671,1.482c-0.25-0.828-0.545-1.658-1.06-2.363
		C263.671,297.033,263.578,297.861,263.616,298.23 M266.052,301.496c-0.731,0.342,0.123,1.623,0.76,1.316
		C266.981,302.307,266.567,301.619,266.052,301.496z M252.52,300.496c-0.239,2.213,1.608,4.547,3.843,4.752
		c1.417-0.002,3.309-0.57,3.615-2.168c0.015-1.953-0.421-4.018,0.452-5.867c0.455-1.254,1.656-1.939,2.678-2.684
		c-0.873-0.432-1.81,0.205-2.716,0.205c-0.135-0.629,0.16-1.576-0.658-1.83c-1.942-0.254-3.992,0.193-5.644,1.246
		c-0.657,0.486-1.522,1.123-1.333,2.051c1.586,0.346,3.526-0.09,4.75,1.281c0.846,0.551,0.958,2.375-0.374,2.203
		c-0.784-0.373-1.512-0.854-2.284-1.25C253.86,298.791,252.681,299.305,252.52,300.496z M249.554,308.445
		c3.418,1.852,6.791,3.783,10.175,5.699c0.294-1.367,0.97-2.834,0.47-4.221c-0.784-1.066-1.907-1.963-3.223-2.246
		c-3.004-0.68-5.978-2.533-7.149-5.496c-1.015-2.234-0.161-4.928-1.507-7.051c-0.347-0.664-0.959-1.115-1.597-1.479
		c-0.57,0.229-1.152,0.434-1.742,0.605c-0.097-1.598,1.899-1.635,2.854-0.906c0.507,0.223,1.178,1.107,1.69,0.41
		c1.335-1.561,2.689-3.24,4.619-4.09c1.862-0.795,3.928-0.668,5.91-0.689c-3.164-6.309-6.578-12.495-10.246-18.524
		c-1.208-1.873-2.346-3.813-3.81-5.506c-2.388-2.38-6.04-2.694-9.208-2.172c-3.089,0.575-5.749,2.339-8.558,3.648
		c-5.388,2.631-10.421,6.077-14.533,10.469c-2.279,2.571-3.51,6.567-1.683,9.716c1.194,2.219,3.623,3.186,5.69,4.385
		c7.868,4.354,15.703,8.768,23.646,12.975c1.679-1.148,1.993-4.145,0.022-5.148c-1.313-0.492-2.216,0.516-2.798,1.531
		c-0.314,0.617-1.139,0.494-1.452-0.045c-0.87-1.133-0.504-2.986,0.694-3.764c1.354-0.92,3.168-0.861,4.687-0.408
		c1.414,0.408,2.48,1.783,2.429,3.275c0.067,2.037-1.512,3.525-2.276,5.279c1.757,0.145,3.597,0.402,5.063,1.463
		C248.61,306.686,248.599,308.002,249.554,308.445z M267.449,313.436l-0.229,0.1c-1.261,0.441-0.878,2.498,0.229,2.891V313.436z"/>
	<path fill="#9EC41A" d="M291.411,299.697c0.563-0.357,1.284-0.607,1.593-1.25c0.221-0.5-0.142-0.951-0.439-1.316
		C292.13,297.963,291.718,298.811,291.411,299.697 M290.124,301.783c-0.705,0.5,0.025,1.443,0.593,0.721
		C291.306,302.057,290.62,300.973,290.124,301.783z M297.374,304.234c0.937,0.73,2.186,1.086,3.364,0.93
		c1.697-0.367,2.937-1.904,3.38-3.523c0.455-1.398-0.764-3.082-2.264-2.939c-0.996-0.074-1.628,1.012-2.579,1.004
		c-1.018-0.033-0.915-1.553-0.32-2.063c1.253-1.49,3.329-1.287,5.07-1.4c-0.146-1.402-1.484-2.193-2.656-2.701
		c-1.496-0.578-3.175-0.883-4.754-0.504c-0.257,0.525-0.178,1.143-0.261,1.697c-0.873-0.004-1.704-0.264-2.549-0.439
		c-0.138,0.6,0.612,0.725,0.948,1.053c1.828,1.152,2.221,3.541,2.067,5.535C296.865,301.996,296.354,303.418,297.374,304.234z
		 M296.91,313.994c3.661-1.779,7.11-3.98,10.72-5.879c0.786-2.617,3.802-3.332,6.207-3.406c-0.437-1.773-2.107-3.033-2.126-4.941
		c-0.197-1.641,0.937-3.266,2.525-3.689c1.669-0.439,3.779-0.518,5.079,0.82c1.003,0.963,1.092,2.93-0.095,3.771
		c-1.467,0.658-1.495-1.936-2.865-1.867c-1.269-0.299-2.316,0.898-2.32,2.096c-0.156,1.176,0.399,2.285,1.275,3.035
		c8.762-4.625,17.376-9.516,26.045-14.301c1.903-0.971,3.505-2.691,3.982-4.818c0.66-2.892-0.597-5.89-2.508-8.043
		c-4.1-4.302-9.059-7.704-14.382-10.309c-2.955-1.38-5.769-3.272-9.063-3.724c-2.494-0.298-5.198-0.164-7.373,1.22
		c-1.422,0.829-2.301,2.265-3.209,3.582c-4.509,6.838-8.296,14.114-12.144,21.336c1.93,0.195,3.95-0.066,5.784,0.717
		c2.114,0.926,3.633,2.75,5.021,4.529c1.04-0.586,2.077-1.484,3.364-1.215c0.693,0.135,0.941,0.809,0.899,1.439
		c-0.903-0.262-2.182-0.945-2.831,0.127c-2.079,2.295-0.803,5.658-2.218,8.227c-1.346,2.734-4.196,4.432-7.099,5.059
		c-1.292,0.275-2.34,1.23-3.09,2.266C296.13,311.346,296.66,312.703,296.91,313.994z M285.203,320.059
		c1.282-0.279,2.506-0.971,3.615-1.625c-1.672-0.506-4.104-2.008-3.082-4.07c0.962,0.582,1.631,1.59,2.652,2.057
		c1.56,0.553,2.608-2.146,1.149-2.82c-1.354-0.607-2.942-0.527-4.335-0.033V320.059z"/>
	<path fill="#E00375" d="M287.075,290.766c0.385,1.559,2.098,2.166,3.336,2.914c0.534-1.406,0.907-2.869,1.521-4.246
		c-0.179-0.242-0.357-0.484-0.532-0.729c0.085,1.377-1.347,0.627-2.012,0.408C288.325,288.49,286.751,289.527,287.075,290.766
		 M285.203,294.455c0.809-0.133,1.882,0.266,2.335-0.604c-0.53-1.014-1.713-1.699-2.335-2.652V294.455z M285.203,304.809
		c0.594-0.301,1.19-0.594,1.795-0.861c0.313-0.902,0.614-1.814,0.91-2.727c-0.895-0.104-1.835-0.145-2.705-0.402V304.809z
		 M275.808,290.055c0.364-0.604,0.707-1.223,0.963-1.885c0.661-1.373,0.813-2.904,1.242-4.352c0.143-0.006,0.418-0.02,0.557-0.027
		c0.17,1.215,0.488,2.387,0.916,3.516c0.395-0.219,0.744-0.301,1.223-0.457l4.495-1.465v2.875c0.773-1.27,2.557-1.908,4.011-1.549
		c1.315,0.115,2.167,1.189,2.984,2.1c0.221-1.574,0.861-3.033,1.313-4.549c1.98-6.264,3.996-12.516,5.873-18.81
		c0.13-4.761-4.601-8.272-9.066-8.38c-7.343-0.067-14.689-0.011-22.032-0.026c-3.492-0.037-7.178,1.601-8.916,4.738
		c-0.694,1.34-1.205,2.933-0.736,4.425c2.071,7.723,4.228,15.425,6.559,23.073c0.4,1.477,0.828,2.951,1.414,4.369
		c1.393-0.773,2.866-1.65,3.437-3.236c-0.399-0.711-0.963-1.297-1.723-1.615c-0.911,0.389-1.858,0.729-2.862,0.732
		c0.02-0.709-0.257-1.672,0.523-2.104c2.141-1.838,6.398-0.449,6.092,2.668c-0.074,1.904-2.715,2.375-2.577,4.26
		c0.226,0.02,0.456,0.025,0.688,0.031C272.044,292.932,273.921,291.49,275.808,290.055z"/>
</g>
<g>
	<path fill="#FFFFFF" d="M199.967,391.6v8.445h10.26V391.6h2.776v20.182h-2.776v-9.457h-10.26v9.457h-2.735V391.6H199.967z
		 M230.617,405.441l-2.209,6.342h-2.834l7.216-20.18h3.307l7.231,20.18h-2.927l-2.265-6.342H230.617z M237.571,403.402l-2.085-5.811
		c-0.464-1.32-0.78-2.52-1.098-3.688h-0.061c-0.318,1.199-0.666,2.428-1.076,3.656l-2.07,5.842H237.571z M257.666,411.783
		l-5.379-20.182h2.891l2.519,10.215c0.634,2.512,1.198,5.021,1.574,6.969h0.063c0.347-2,1.012-4.404,1.73-7l2.837-10.184h2.864
		l2.582,10.244c0.593,2.387,1.159,4.785,1.474,6.908h0.064c0.447-2.217,1.042-4.455,1.699-6.969l2.804-10.184h2.797l-6.01,20.182
		h-2.859l-2.683-10.508c-0.664-2.58-1.097-4.559-1.39-6.59h-0.053c-0.379,2.008-0.858,3.979-1.639,6.59l-3.023,10.508H257.666z
		 M291.902,405.441l-2.211,6.342h-2.836l7.217-20.18h3.307l7.232,20.18h-2.928l-2.266-6.342H291.902z M298.854,403.402l-2.086-5.811
		c-0.465-1.32-0.781-2.52-1.099-3.688h-0.061c-0.317,1.199-0.663,2.428-1.073,3.656l-2.072,5.842H298.854z M317.155,391.875
		c1.382-0.277,3.359-0.424,5.252-0.424c2.928,0,4.814,0.51,6.136,1.643c1.075,0.906,1.667,2.281,1.667,3.834
		c0,2.674-1.761,4.436-3.992,5.152v0.096c1.638,0.531,2.611,1.969,3.121,4.07c0.688,2.813,1.189,4.76,1.639,5.539h-2.845
		c-0.346-0.572-0.811-2.303-1.414-4.82c-0.626-2.789-1.76-3.832-4.248-3.924h-2.582v8.744h-2.733V391.875z M319.889,401.063h2.797
		c2.928,0,4.783-1.521,4.783-3.832c0-2.604-1.969-3.74-4.866-3.771c-1.323,0-2.274,0.115-2.714,0.24V401.063z M361.396,402.918
		c-0.161-2.813-0.348-6.205-0.318-8.709h-0.1c-0.718,2.365-1.599,4.877-2.665,7.666l-3.755,9.789h-2.07l-3.437-9.611
		c-1.006-2.842-1.855-5.447-2.452-7.844h-0.061c-0.069,2.504-0.223,5.896-0.415,8.918l-0.565,8.654h-2.611l1.482-20.182h3.49
		l3.625,9.766c0.882,2.488,1.607,4.697,2.141,6.801h0.095c0.532-2.041,1.289-4.258,2.231-6.801l3.777-9.766h3.493l1.32,20.182
		h-2.673L361.396,402.918z M381.372,405.441l-2.21,6.342h-2.836l7.216-20.18h3.308l7.231,20.18h-2.928l-2.266-6.342H381.372z
		 M388.326,403.402l-2.088-5.811c-0.464-1.32-0.779-2.52-1.097-3.688h-0.062c-0.317,1.199-0.664,2.428-1.074,3.656l-2.07,5.842
		H388.326z M171.907,408.607c1.229,0.727,3.029,1.32,4.914,1.32c2.795,0,4.434-1.414,4.434-3.445c0-1.895-1.134-2.959-4.001-4.018
		c-3.461-1.16-5.594-2.867-5.594-5.717c0-3.139,2.735-5.479,6.853-5.479c2.179,0,3.756,0.479,4.699,0.998l-0.758,2.115
		c-0.694-0.355-2.109-0.957-4.026-0.957c-2.897,0-4.001,1.645-4.001,3.029c0,1.883,1.29,2.813,4.217,3.893
		c3.586,1.322,5.408,2.961,5.408,5.926c0,3.123-2.417,5.803-7.424,5.803c-2.039,0-4.279-0.555-5.416-1.283L171.907,408.607z"/>
	<path fill="#FFFFFF" d="M267.826,143.948v109.67c-4.592,0.103-9.191,2.413-11.468,6.524c-1.156,2.229-1.763,4.651-1.005,7.061
		c1.021,3.815,2.066,7.624,3.142,11.433c-1.847-3.371-3.771-6.699-5.768-9.979c-1.313-2.034-2.557-4.104-4.11-5.918
		c-0.013-1.909-0.038-3.816-0.091-5.723c-0.02-0.73-0.839-1.974-1.411-2.063c-8.12-1.165-16.249-2.173-24.379-3.2
		c-0.149-0.021-0.316,0.109-0.485,0.179c-0.297,4.612-0.383,9.265-0.926,13.857l-0.072,0.59c-3.688,2.306-7.107,5.026-10.073,8.193
		c-3.298,3.716-4.727,9.292-2.142,13.743c0.062,0.115,0.127,0.232,0.195,0.342c-1.74-0.371-3.506-0.627-5.313-0.713
		c-4.879-0.229-8.91,2.869-11.751,6.543c-3.995,5.121-5.793,11.357-6.82,17.674c-11.3,2.617-23.295,0.553-32.335-6.328
		c-17.968-13.68-18.315-41.724-0.485-55.502c0.958-0.75,1.915-1.5,3.013-2.122c-3.231,4.591-5.908,9.362-6.936,14.943
		c-2.063,11.281,2.54,21.406,12.465,27.076c10.351,5.916,24.614,5.107,33.773-1.945c6.647-5.127,9.609-12.17,9.73-20.319
		c0.215-13.877-0.063-27.765,0.125-41.644c0.129-9.472,1.109-18.894,3.676-28.073c4.791-17.076,15.487-28.95,31.796-35.835
		c2.341-0.977,4.662-1.994,6.971-3.032C257.614,154.646,260.784,152.275,267.826,143.948 M302.078,268.409
		c0.307,0.589,0.675,1.126,1.109,1.606c-1.185,1.951-2.323,3.925-3.438,5.914C300.538,273.428,301.317,270.922,302.078,268.409z
		 M282.834,253.608c-0.017-30.939,0.013-61.879-0.034-92.819c-0.008-1.887,0.505-3.093,2.036-4.219
		c4.791-3.486,9.452-7.14,14.174-10.716c0.385-0.296,0.812-0.523,1.628-1.058c0,1.254,0,2.133,0,3.024
		c0,37.026-0.007,74.051,0.02,111.079c-2.344-3.142-6.283-5.161-10.271-5.257C287.867,253.62,285.35,253.611,282.834,253.608z
		 M334.063,144.765v74.342c2.264-2.333,3.982-4.498,6.077-6.194c7.666-6.233,18.232-4.84,24.271,2.97
		c4.481,5.818,6.173,12.535,6.31,19.686c0.148,8.3-0.06,37.931,0.109,46.218c0.048,2.4,0.552,4.89,1.372,7.14
		c1.735,4.734,7.988,6.203,12.894,3.953c2.549-1.17,4.839-3.316,7.078-4.994c-0.712,4.416-0.624,8.275-3.356,11.85
		c-4.704,6.182-11.699,9-18.303,8.287c-0.164-0.668-0.332-1.338-0.491-2.016c-1.775-6.387-4.95-12.617-10.612-16.275
		c-1.954-1.283-4.063-1.758-6.227-1.787c-0.107-1.188-0.164-2.387-0.186-3.59c-0.147-8.042-0.027-37.426-0.038-45.465
		c-0.009-4-0.474-7.923-2.391-11.539c-3.278-6.182-10.164-7.201-14.854-2.044c-0.909,0.997-1.531,2.646-1.543,4.002
		c-0.065,12.106-0.068,24.206-0.063,36.308c-1.36-0.803-2.752-1.551-4.167-2.242c-3.441-1.607-6.253-3.506-10.103-4.039
		c-1.166-0.139-2.341-0.195-3.496-0.133c0.027-16.134,0.021-32.26,0.021-48.396c0-16.761,0.021-33.524-0.039-50.275
		c-0.011-1.699,0.474-2.778,1.838-3.793c4.604-3.438,9.104-7.022,13.669-10.528C332.406,145.765,333.06,145.409,334.063,144.765z
		 M172.584,248.55c3.082-2.943,6.303-6.014,9.69-9.254c3.22,3.448,6.263,6.707,9.422,10.094c-2.912,2.884-6.112,6.057-9.383,9.295
		C179.172,255.416,176.031,252.145,172.584,248.55z M182.145,219.638c3.361,3.281,6.561,6.392,9.691,9.444
		c-3.188,3.291-6.321,6.519-9.609,9.926c-3.142-3.387-6.213-6.694-9.187-9.895C175.913,226.12,179.085,222.819,182.145,219.638z
		 M248.666,174.075c-9.937,3.81-17.88,12.575-21.702,23.536c-4.474,12.852-4.74,26.168-4.543,39.708
		c8.701,2.688,17.325,5.345,26.246,8.089V174.075z"/>
	<g>
		<path fill="#FFFFFF" d="M265.85,379.623c-2.34-4.303-2.654-8.975-2.625-13.74c0.043-6.752,0.146-13.502,0-20.254
			c-0.053-2.455-0.46-4.982-1.192-7.322c-2.978-9.475-13.13-11.941-20.215-5.014c-0.799,0.787-1.557,1.625-2.4,2.504
			c-0.363-0.547-0.672-1.014-0.988-1.479c-1.684-2.541-3.976-4.184-7.007-4.748c-3.739-0.689-7.061,0.432-10.243,2.256
			c-6.873,3.939-10.879,9.547-10.656,17.783c0.146,5.195,0.043,10.389,0.014,15.584c0,0.527-0.08,1.26-0.419,1.539
			c-1.721,1.436-3.685,2.09-5.934,1.332c-2.243-0.744-3.31-2.398-3.497-4.666c-0.122-1.389-0.175-2.793-0.175-4.189
			c0.018-6.648,0.06-13.297,0.089-19.945c0.007-1.072,0-2.152,0-3.352h-5.877c2.739-2.34,4.441-4.934,5.242-8.072
			c0.788-3.07,0.685-6.143,0.194-9.275c-1.11,1.574-1.88,3.279-3.165,4.383c-2.575,2.223-5.308,4.309-8.2,6.104
			c-3.211,1.986-6.733,3.459-9.995,5.375c-4.927,2.898-8.927,6.74-11.188,12.148c-4.22,9.02-2.794,30.246,12.183,30.438
			c4.968-0.279,8.042-3.533,10.642-7.527c1.692,4.412,4.613,7.018,9.123,7.521c4.515,0.508,7.927-1.643,11.006-5.291v4.613h10.704
			c0-0.654,0-1.17,0-1.686c0-11.432,0.024-22.857-0.024-34.289c-0.005-1.041,0.364-1.623,1.201-2.104
			c2.06-1.182,4.969-0.301,6.637,2.057c1.545,2.176,2.314,4.68,2.454,7.273c0.261,4.969,0.587,9.969,0.304,14.928
			c-0.213,3.795,0.738,6.527,3.903,8.686c2.405,1.648,4.551,3.668,7.079,5.732c0-0.943,0-1.508,0-2.064
			c0.007-7.48,0.012-14.961,0.024-22.439c0.006-4.072-0.509-8.063-1.703-11.965c-0.127-0.418,0.133-1.193,0.478-1.484
			c3.431-2.855,7.783-1.91,9.365,2.266c0.854,2.268,1.285,4.814,1.357,7.25c0.187,6.643-0.043,13.299,0.146,19.941
			c0.151,5.109,1.273,9.951,5.126,13.789c3.892,3.865,8.589,4.721,13.977,4.193C269.026,384.484,267.255,382.211,265.85,379.623z
			 M189.808,342.512c-0.007,6.748-0.02,13.492-0.02,20.244c0,3.758-3.036,6.043-6.759,5.129c-2.896-0.709-4.63-2.637-5.685-5.275
			c-3.036-7.611-0.144-16.516,6.802-20.836c1.727-1.074,3.581-1.965,5.662-3.098C189.808,340.25,189.808,341.379,189.808,342.512z"
			/>
		<path fill="#FFFFFF" d="M341.741,330.447c-4.007-2.141-7.982-1.225-11.584,1.248c-1.453,1-2.66,2.365-4.175,3.734v-4.012
			c-7.201,3.744-10.536,9.23-10.529,17.123c0,5.295-0.109,10.6,0.072,15.891c0.067,1.939-0.817,2.686-2.326,3.219
			c-0.396,0.141-0.808,0.303-1.206,0.303c-3.248,0.025-6.497,0.012-10.008,0.012c2.796-4.594,3.88-9.461,4.255-14.504
			c0.437-5.908,0.157-11.727-2.68-17.127c-4.169-7.959-13.466-9.227-19.412-3.232c-0.739,0.752-1.662,1.322-2.377,1.873v-44.863
			c-0.388,0.127-0.551,0.139-0.654,0.217c-3.267,2.484-6.54,4.959-9.759,7.498c-0.338,0.273-0.478,0.977-0.478,1.479
			c-0.007,25.197,0.005,50.387,0.017,75.584c0,0.49,0,0.986,0,1.455h10.917v-7.201c1.024,1.484,1.77,2.658,2.606,3.764
			c1.751,2.32,3.952,3.672,7.019,3.588c4.31-0.115,8.63-0.164,12.941,0.023c4.055,0.176,7.126-1.4,9.601-4.455
			c0.362-0.447,0.786-0.848,1.491-1.611v5.893h10.781c0-0.674,0-1.238,0-1.797c0.014-10.648,0.014-21.297,0.05-31.949
			c0-0.742,0.095-1.604,0.473-2.217c1.229-2.047,3.103-3.254,5.533-3.096c2.723,0.18,4.587,1.738,5.226,4.369
			c0.417,1.715,0.368,3.547,0.539,5.475c2.733-0.068,5.436-0.824,7.431-2.924c0.945-0.988,1.607-2.617,1.679-3.992
			C347.433,335.902,345.518,332.465,341.741,330.447z M292.967,363.371c-0.952,1.916-2.249,3.449-4.419,4.086
			c-2.381,0.703-5.757-0.777-6.69-3.049c-0.153-0.357-0.091-0.813-0.091-1.225c-0.007-3.576-0.007-7.158-0.007-10.734
			c0.007-3.213,0-6.432,0.007-9.643c0-2.648,1.781-4.855,4.405-5.279c2.788-0.455,5.081,0.375,6.771,2.77
			c1.849,2.619,2.321,5.666,2.449,8.686C295.609,353.916,295.22,358.824,292.967,363.371z"/>
		<path fill="#FFFFFF" d="M388.519,368.176c-3.734-0.07-4.947-1.447-4.935-5.205c0.023-8.104,0.012-16.209,0.006-24.313
			c0-0.557-0.047-1.113-0.085-1.801h-5.061c4.794-4.762,5.982-10.242,4.667-16.729c-2.273,4.838-6.031,7.688-10.323,9.941
			c-3.03,1.588-6.114,3.061-9.12,4.686c-5.322,2.885-9.825,6.686-12.214,12.4c-3.419,8.195-3.612,16.395,1.14,24.166
			c3.686,6.025,11.014,7.594,16.298,3.674c1.873-1.389,3.305-3.371,5-5.146c0.055,0.115,0.182,0.387,0.297,0.66
			c1.667,3.91,4.682,6.02,8.862,6.328c2.473,0.188,4.988,0.242,7.455,0.035c4.57-0.381,7.915-3.908,8.419-8.678
			C395.444,368.195,391.978,368.248,388.519,368.176z M372.887,352.441c-0.006,3.588-0.02,7.17-0.02,10.754
			c0,3.398-2.594,5.623-5.993,5.064c-3.838-0.629-5.625-3.404-6.433-6.787c-2.169-9.152,2.123-17.691,11.996-21.195
			c0.086-0.031,0.199,0.023,0.449,0.053C372.887,344.355,372.887,348.398,372.887,352.441z"/>
	</g>
</g>
</svg>
